<mxfile host="app.diagrams.net" agent="Mozilla/5.0 (Windows NT 10.0; Win64; x64) AppleWebKit/537.36 (KHTML, like Gecko) Chrome/129.0.0.0 Safari/537.36" version="24.7.17">
  <diagram name="Halaman-1" id="bVL-AQJpWsdC2754ss1q">
    <mxGraphModel grid="1" page="1" gridSize="10" guides="1" tooltips="1" connect="1" arrows="1" fold="1" pageScale="1" pageWidth="827" pageHeight="1169" math="0" shadow="0">
      <root>
        <mxCell id="0" />
        <mxCell id="1" parent="0" />
        <mxCell id="RF5eV9zY0-kpTHiVYETu-1" value="Members" style="whiteSpace=wrap;strokeWidth=2;fillColor=#dae8fc;strokeColor=#6c8ebf;" vertex="1" parent="1">
          <mxGeometry x="732" y="20" width="125" height="49" as="geometry" />
        </mxCell>
        <mxCell id="RF5eV9zY0-kpTHiVYETu-2" value="Loans" style="whiteSpace=wrap;strokeWidth=2;fillColor=#dae8fc;strokeColor=#6c8ebf;" vertex="1" parent="1">
          <mxGeometry x="1967" y="142" width="101" height="49" as="geometry" />
        </mxCell>
        <mxCell id="RF5eV9zY0-kpTHiVYETu-3" value="Full name" style="whiteSpace=wrap;strokeWidth=2;fillColor=#dae8fc;strokeColor=#6c8ebf;" vertex="1" parent="1">
          <mxGeometry x="1284" y="142" width="131" height="49" as="geometry" />
        </mxCell>
        <mxCell id="RF5eV9zY0-kpTHiVYETu-4" value="Username" style="whiteSpace=wrap;strokeWidth=2;fillColor=#dae8fc;strokeColor=#6c8ebf;" vertex="1" parent="1">
          <mxGeometry x="1103" y="142" width="131" height="49" as="geometry" />
        </mxCell>
        <mxCell id="RF5eV9zY0-kpTHiVYETu-5" value="Password" style="whiteSpace=wrap;strokeWidth=2;fillColor=#dae8fc;strokeColor=#6c8ebf;" vertex="1" parent="1">
          <mxGeometry x="927" y="142" width="125" height="49" as="geometry" />
        </mxCell>
        <mxCell id="RF5eV9zY0-kpTHiVYETu-6" value="Phone Number" style="whiteSpace=wrap;strokeWidth=2;fillColor=#dae8fc;strokeColor=#6c8ebf;" vertex="1" parent="1">
          <mxGeometry x="713" y="142" width="165" height="49" as="geometry" />
        </mxCell>
        <mxCell id="RF5eV9zY0-kpTHiVYETu-7" value="Email" style="whiteSpace=wrap;strokeWidth=2;fillColor=#dae8fc;strokeColor=#6c8ebf;" vertex="1" parent="1">
          <mxGeometry x="563" y="142" width="100" height="49" as="geometry" />
        </mxCell>
        <mxCell id="RF5eV9zY0-kpTHiVYETu-8" value="Address" style="whiteSpace=wrap;strokeWidth=2;fillColor=#dae8fc;strokeColor=#6c8ebf;" vertex="1" parent="1">
          <mxGeometry x="396" y="142" width="117" height="49" as="geometry" />
        </mxCell>
        <mxCell id="RF5eV9zY0-kpTHiVYETu-9" value="Membership Date" style="whiteSpace=wrap;strokeWidth=2;fillColor=#dae8fc;strokeColor=#6c8ebf;" vertex="1" parent="1">
          <mxGeometry x="161" y="142" width="185" height="49" as="geometry" />
        </mxCell>
        <mxCell id="RF5eV9zY0-kpTHiVYETu-10" value="Role" style="whiteSpace=wrap;strokeWidth=2;fillColor=#dae8fc;strokeColor=#6c8ebf;" vertex="1" parent="1">
          <mxGeometry x="20" y="142" width="91" height="49" as="geometry" />
        </mxCell>
        <mxCell id="RF5eV9zY0-kpTHiVYETu-11" value="Books" style="whiteSpace=wrap;strokeWidth=2;fillColor=#dae8fc;strokeColor=#6c8ebf;" vertex="1" parent="1">
          <mxGeometry x="2426" y="264" width="101" height="49" as="geometry" />
        </mxCell>
        <mxCell id="RF5eV9zY0-kpTHiVYETu-12" value="Loan Date" style="whiteSpace=wrap;strokeWidth=2;fillColor=#dae8fc;strokeColor=#6c8ebf;" vertex="1" parent="1">
          <mxGeometry x="2224" y="264" width="132" height="49" as="geometry" />
        </mxCell>
        <mxCell id="RF5eV9zY0-kpTHiVYETu-13" value="Due Date" style="whiteSpace=wrap;strokeWidth=2;fillColor=#dae8fc;strokeColor=#6c8ebf;" vertex="1" parent="1">
          <mxGeometry x="2048" y="264" width="126" height="49" as="geometry" />
        </mxCell>
        <mxCell id="RF5eV9zY0-kpTHiVYETu-14" value="Return Date" style="whiteSpace=wrap;strokeWidth=2;fillColor=#dae8fc;strokeColor=#6c8ebf;" vertex="1" parent="1">
          <mxGeometry x="1852" y="264" width="146" height="49" as="geometry" />
        </mxCell>
        <mxCell id="RF5eV9zY0-kpTHiVYETu-15" value="Loan Status" style="whiteSpace=wrap;strokeWidth=2;fillColor=#dae8fc;strokeColor=#6c8ebf;" vertex="1" parent="1">
          <mxGeometry x="1659" y="264" width="143" height="49" as="geometry" />
        </mxCell>
        <mxCell id="RF5eV9zY0-kpTHiVYETu-16" value="Fines" style="whiteSpace=wrap;strokeWidth=2;fillColor=#dae8fc;strokeColor=#6c8ebf;" vertex="1" parent="1">
          <mxGeometry x="1511" y="264" width="97" height="49" as="geometry" />
        </mxCell>
        <mxCell id="RF5eV9zY0-kpTHiVYETu-17" value="Title" style="whiteSpace=wrap;strokeWidth=2;fillColor=#dae8fc;strokeColor=#6c8ebf;" vertex="1" parent="1">
          <mxGeometry x="3112" y="386" width="94" height="49" as="geometry" />
        </mxCell>
        <mxCell id="RF5eV9zY0-kpTHiVYETu-18" value="Author" style="whiteSpace=wrap;strokeWidth=2;fillColor=#dae8fc;strokeColor=#6c8ebf;" vertex="1" parent="1">
          <mxGeometry x="2953" y="386" width="110" height="49" as="geometry" />
        </mxCell>
        <mxCell id="RF5eV9zY0-kpTHiVYETu-19" value="Publisher" style="whiteSpace=wrap;strokeWidth=2;fillColor=#dae8fc;strokeColor=#6c8ebf;" vertex="1" parent="1">
          <mxGeometry x="2776" y="386" width="127" height="49" as="geometry" />
        </mxCell>
        <mxCell id="RF5eV9zY0-kpTHiVYETu-20" value="Publish Year" style="whiteSpace=wrap;strokeWidth=2;fillColor=#dae8fc;strokeColor=#6c8ebf;" vertex="1" parent="1">
          <mxGeometry x="2579" y="386" width="147" height="49" as="geometry" />
        </mxCell>
        <mxCell id="RF5eV9zY0-kpTHiVYETu-21" value="Genre" style="whiteSpace=wrap;strokeWidth=2;fillColor=#dae8fc;strokeColor=#6c8ebf;" vertex="1" parent="1">
          <mxGeometry x="2425" y="386" width="104" height="49" as="geometry" />
        </mxCell>
        <mxCell id="RF5eV9zY0-kpTHiVYETu-22" value="Language" style="whiteSpace=wrap;strokeWidth=2;fillColor=#dae8fc;strokeColor=#6c8ebf;" vertex="1" parent="1">
          <mxGeometry x="2248" y="386" width="127" height="49" as="geometry" />
        </mxCell>
        <mxCell id="RF5eV9zY0-kpTHiVYETu-23" value="Total Pages" style="whiteSpace=wrap;strokeWidth=2;fillColor=#dae8fc;strokeColor=#6c8ebf;" vertex="1" parent="1">
          <mxGeometry x="2056" y="386" width="142" height="49" as="geometry" />
        </mxCell>
        <mxCell id="RF5eV9zY0-kpTHiVYETu-24" value="Stock" style="whiteSpace=wrap;strokeWidth=2;fillColor=#dae8fc;strokeColor=#6c8ebf;" vertex="1" parent="1">
          <mxGeometry x="1906" y="386" width="100" height="49" as="geometry" />
        </mxCell>
        <mxCell id="RF5eV9zY0-kpTHiVYETu-25" value="Location Shelf" style="whiteSpace=wrap;strokeWidth=2;fillColor=#dae8fc;strokeColor=#6c8ebf;" vertex="1" parent="1">
          <mxGeometry x="1694" y="386" width="163" height="49" as="geometry" />
        </mxCell>
        <mxCell id="RF5eV9zY0-kpTHiVYETu-26" value="Staff" style="whiteSpace=wrap;strokeWidth=2;fillColor=#dae8fc;strokeColor=#6c8ebf;" vertex="1" parent="1">
          <mxGeometry x="1994" y="20" width="95" height="49" as="geometry" />
        </mxCell>
        <mxCell id="RF5eV9zY0-kpTHiVYETu-27" value="Name" style="whiteSpace=wrap;strokeWidth=2;fillColor=#dae8fc;strokeColor=#6c8ebf;" vertex="1" parent="1">
          <mxGeometry x="2458" y="142" width="101" height="49" as="geometry" />
        </mxCell>
        <mxCell id="RF5eV9zY0-kpTHiVYETu-28" value="Position" style="whiteSpace=wrap;strokeWidth=2;fillColor=#dae8fc;strokeColor=#6c8ebf;" vertex="1" parent="1">
          <mxGeometry x="2292" y="142" width="116" height="49" as="geometry" />
        </mxCell>
        <mxCell id="RF5eV9zY0-kpTHiVYETu-29" value="Phone" style="whiteSpace=wrap;strokeWidth=2;fillColor=#dae8fc;strokeColor=#6c8ebf;" vertex="1" parent="1">
          <mxGeometry x="2138" y="142" width="103" height="49" as="geometry" />
        </mxCell>
        <mxCell id="RF5eV9zY0-kpTHiVYETu-30" value="Email" style="whiteSpace=wrap;strokeWidth=2;fillColor=#dae8fc;strokeColor=#6c8ebf;" vertex="1" parent="1">
          <mxGeometry x="1798" y="142" width="100" height="49" as="geometry" />
        </mxCell>
        <mxCell id="RF5eV9zY0-kpTHiVYETu-31" value="Hire Date" style="whiteSpace=wrap;strokeWidth=2;fillColor=#dae8fc;strokeColor=#6c8ebf;" vertex="1" parent="1">
          <mxGeometry x="1619" y="142" width="128" height="49" as="geometry" />
        </mxCell>
        <mxCell id="RF5eV9zY0-kpTHiVYETu-32" value="Salary" style="whiteSpace=wrap;strokeWidth=2;fillColor=#dae8fc;strokeColor=#6c8ebf;" vertex="1" parent="1">
          <mxGeometry x="1465" y="142" width="104" height="49" as="geometry" />
        </mxCell>
        <mxCell id="RF5eV9zY0-kpTHiVYETu-33" value="Categories" style="whiteSpace=wrap;strokeWidth=2;fillColor=#dae8fc;strokeColor=#6c8ebf;" vertex="1" parent="1">
          <mxGeometry x="2817" y="20" width="136" height="49" as="geometry" />
        </mxCell>
        <mxCell id="RF5eV9zY0-kpTHiVYETu-34" value="Book Categories" style="whiteSpace=wrap;strokeWidth=2;fillColor=#dae8fc;strokeColor=#6c8ebf;" vertex="1" parent="1">
          <mxGeometry x="3019" y="142" width="175" height="49" as="geometry" />
        </mxCell>
        <mxCell id="RF5eV9zY0-kpTHiVYETu-35" value="Book ID" style="whiteSpace=wrap;strokeWidth=2;fillColor=#dae8fc;strokeColor=#6c8ebf;" vertex="1" parent="1">
          <mxGeometry x="3139" y="264" width="114" height="49" as="geometry" />
        </mxCell>
        <mxCell id="RF5eV9zY0-kpTHiVYETu-36" value="Category ID" style="whiteSpace=wrap;strokeWidth=2;fillColor=#dae8fc;strokeColor=#6c8ebf;" vertex="1" parent="1">
          <mxGeometry x="2780" y="264" width="143" height="49" as="geometry" />
        </mxCell>
        <mxCell id="RF5eV9zY0-kpTHiVYETu-37" value="Category Name" style="whiteSpace=wrap;strokeWidth=2;fillColor=#dae8fc;strokeColor=#6c8ebf;" vertex="1" parent="1">
          <mxGeometry x="2800" y="142" width="170" height="49" as="geometry" />
        </mxCell>
        <mxCell id="RF5eV9zY0-kpTHiVYETu-38" value="Description" style="whiteSpace=wrap;strokeWidth=2;fillColor=#dae8fc;strokeColor=#6c8ebf;" vertex="1" parent="1">
          <mxGeometry x="2609" y="142" width="141" height="49" as="geometry" />
        </mxCell>
        <mxCell id="RF5eV9zY0-kpTHiVYETu-39" value="1:n" style="curved=1;startArrow=none;endArrow=block;exitX=1;exitY=0.58;entryX=0;entryY=0.28;rounded=0;fillColor=#dae8fc;strokeColor=#6c8ebf;" edge="1" parent="1" source="RF5eV9zY0-kpTHiVYETu-1" target="RF5eV9zY0-kpTHiVYETu-2">
          <mxGeometry relative="1" as="geometry">
            <Array as="points">
              <mxPoint x="1734" y="106" />
            </Array>
          </mxGeometry>
        </mxCell>
        <mxCell id="RF5eV9zY0-kpTHiVYETu-40" value="has" style="curved=1;startArrow=none;endArrow=block;exitX=1;exitY=0.64;entryX=0.5;entryY=0;rounded=0;fillColor=#dae8fc;strokeColor=#6c8ebf;" edge="1" parent="1" source="RF5eV9zY0-kpTHiVYETu-1" target="RF5eV9zY0-kpTHiVYETu-3">
          <mxGeometry relative="1" as="geometry">
            <Array as="points">
              <mxPoint x="1349" y="106" />
            </Array>
          </mxGeometry>
        </mxCell>
        <mxCell id="RF5eV9zY0-kpTHiVYETu-41" value="has" style="curved=1;startArrow=none;endArrow=block;exitX=1;exitY=0.71;entryX=0.5;entryY=0;rounded=0;fillColor=#dae8fc;strokeColor=#6c8ebf;" edge="1" parent="1" source="RF5eV9zY0-kpTHiVYETu-1" target="RF5eV9zY0-kpTHiVYETu-4">
          <mxGeometry relative="1" as="geometry">
            <Array as="points">
              <mxPoint x="1168" y="106" />
            </Array>
          </mxGeometry>
        </mxCell>
        <mxCell id="RF5eV9zY0-kpTHiVYETu-42" value="has" style="curved=1;startArrow=none;endArrow=block;exitX=1;exitY=0.9;entryX=0.5;entryY=0;rounded=0;fillColor=#dae8fc;strokeColor=#6c8ebf;" edge="1" parent="1" source="RF5eV9zY0-kpTHiVYETu-1" target="RF5eV9zY0-kpTHiVYETu-5">
          <mxGeometry relative="1" as="geometry">
            <Array as="points">
              <mxPoint x="990" y="106" />
            </Array>
          </mxGeometry>
        </mxCell>
        <mxCell id="RF5eV9zY0-kpTHiVYETu-43" value="has" style="curved=1;startArrow=none;endArrow=block;exitX=0.5;exitY=1;entryX=0.5;entryY=0;rounded=0;fillColor=#dae8fc;strokeColor=#6c8ebf;" edge="1" parent="1" source="RF5eV9zY0-kpTHiVYETu-1" target="RF5eV9zY0-kpTHiVYETu-6">
          <mxGeometry relative="1" as="geometry">
            <Array as="points">
              <mxPoint x="795" y="106" />
            </Array>
          </mxGeometry>
        </mxCell>
        <mxCell id="RF5eV9zY0-kpTHiVYETu-44" value="has" style="curved=1;startArrow=none;endArrow=block;exitX=0;exitY=0.93;entryX=0.5;entryY=0;rounded=0;fillColor=#dae8fc;strokeColor=#6c8ebf;" edge="1" parent="1" source="RF5eV9zY0-kpTHiVYETu-1" target="RF5eV9zY0-kpTHiVYETu-7">
          <mxGeometry relative="1" as="geometry">
            <Array as="points">
              <mxPoint x="613" y="106" />
            </Array>
          </mxGeometry>
        </mxCell>
        <mxCell id="RF5eV9zY0-kpTHiVYETu-45" value="has" style="curved=1;startArrow=none;endArrow=block;exitX=0;exitY=0.73;entryX=0.5;entryY=0;rounded=0;fillColor=#dae8fc;strokeColor=#6c8ebf;" edge="1" parent="1" source="RF5eV9zY0-kpTHiVYETu-1" target="RF5eV9zY0-kpTHiVYETu-8">
          <mxGeometry relative="1" as="geometry">
            <Array as="points">
              <mxPoint x="455" y="106" />
            </Array>
          </mxGeometry>
        </mxCell>
        <mxCell id="RF5eV9zY0-kpTHiVYETu-46" value="has" style="curved=1;startArrow=none;endArrow=block;exitX=0;exitY=0.64;entryX=0.5;entryY=0;rounded=0;fillColor=#dae8fc;strokeColor=#6c8ebf;" edge="1" parent="1" source="RF5eV9zY0-kpTHiVYETu-1" target="RF5eV9zY0-kpTHiVYETu-9">
          <mxGeometry relative="1" as="geometry">
            <Array as="points">
              <mxPoint x="254" y="106" />
            </Array>
          </mxGeometry>
        </mxCell>
        <mxCell id="RF5eV9zY0-kpTHiVYETu-47" value="has" style="curved=1;startArrow=none;endArrow=block;exitX=0;exitY=0.61;entryX=0.5;entryY=0;rounded=0;fillColor=#dae8fc;strokeColor=#6c8ebf;" edge="1" parent="1" source="RF5eV9zY0-kpTHiVYETu-1" target="RF5eV9zY0-kpTHiVYETu-10">
          <mxGeometry relative="1" as="geometry">
            <Array as="points">
              <mxPoint x="65" y="106" />
            </Array>
          </mxGeometry>
        </mxCell>
        <mxCell id="RF5eV9zY0-kpTHiVYETu-48" value="n:1" style="curved=1;startArrow=none;endArrow=block;exitX=1;exitY=0.64;entryX=0.5;entryY=0;rounded=0;fillColor=#dae8fc;strokeColor=#6c8ebf;" edge="1" parent="1" source="RF5eV9zY0-kpTHiVYETu-2" target="RF5eV9zY0-kpTHiVYETu-11">
          <mxGeometry relative="1" as="geometry">
            <Array as="points">
              <mxPoint x="2477" y="228" />
            </Array>
          </mxGeometry>
        </mxCell>
        <mxCell id="RF5eV9zY0-kpTHiVYETu-49" value="has" style="curved=1;startArrow=none;endArrow=block;exitX=1;exitY=0.73;entryX=0.5;entryY=0;rounded=0;fillColor=#dae8fc;strokeColor=#6c8ebf;" edge="1" parent="1" source="RF5eV9zY0-kpTHiVYETu-2" target="RF5eV9zY0-kpTHiVYETu-12">
          <mxGeometry relative="1" as="geometry">
            <Array as="points">
              <mxPoint x="2290" y="228" />
            </Array>
          </mxGeometry>
        </mxCell>
        <mxCell id="RF5eV9zY0-kpTHiVYETu-50" value="has" style="curved=1;startArrow=none;endArrow=block;exitX=0.87;exitY=1;entryX=0.5;entryY=0;rounded=0;fillColor=#dae8fc;strokeColor=#6c8ebf;" edge="1" parent="1" source="RF5eV9zY0-kpTHiVYETu-2" target="RF5eV9zY0-kpTHiVYETu-13">
          <mxGeometry relative="1" as="geometry">
            <Array as="points">
              <mxPoint x="2111" y="228" />
            </Array>
          </mxGeometry>
        </mxCell>
        <mxCell id="RF5eV9zY0-kpTHiVYETu-51" value="has" style="curved=1;startArrow=none;endArrow=block;exitX=0.13;exitY=1;entryX=0.5;entryY=0;rounded=0;fillColor=#dae8fc;strokeColor=#6c8ebf;" edge="1" parent="1" source="RF5eV9zY0-kpTHiVYETu-2" target="RF5eV9zY0-kpTHiVYETu-14">
          <mxGeometry relative="1" as="geometry">
            <Array as="points">
              <mxPoint x="1925" y="228" />
            </Array>
          </mxGeometry>
        </mxCell>
        <mxCell id="RF5eV9zY0-kpTHiVYETu-52" value="has" style="curved=1;startArrow=none;endArrow=block;exitX=0;exitY=0.72;entryX=0.5;entryY=0;rounded=0;fillColor=#dae8fc;strokeColor=#6c8ebf;" edge="1" parent="1" source="RF5eV9zY0-kpTHiVYETu-2" target="RF5eV9zY0-kpTHiVYETu-15">
          <mxGeometry relative="1" as="geometry">
            <Array as="points">
              <mxPoint x="1730" y="228" />
            </Array>
          </mxGeometry>
        </mxCell>
        <mxCell id="RF5eV9zY0-kpTHiVYETu-53" value="has" style="curved=1;startArrow=none;endArrow=block;exitX=0;exitY=0.64;entryX=0.51;entryY=0;rounded=0;fillColor=#dae8fc;strokeColor=#6c8ebf;" edge="1" parent="1" source="RF5eV9zY0-kpTHiVYETu-2" target="RF5eV9zY0-kpTHiVYETu-16">
          <mxGeometry relative="1" as="geometry">
            <Array as="points">
              <mxPoint x="1560" y="228" />
            </Array>
          </mxGeometry>
        </mxCell>
        <mxCell id="RF5eV9zY0-kpTHiVYETu-54" value="has" style="curved=1;startArrow=none;endArrow=block;exitX=1;exitY=0.59;entryX=0.51;entryY=0;rounded=0;fillColor=#dae8fc;strokeColor=#6c8ebf;" edge="1" parent="1" source="RF5eV9zY0-kpTHiVYETu-11" target="RF5eV9zY0-kpTHiVYETu-17">
          <mxGeometry relative="1" as="geometry">
            <Array as="points">
              <mxPoint x="3159" y="350" />
            </Array>
          </mxGeometry>
        </mxCell>
        <mxCell id="RF5eV9zY0-kpTHiVYETu-55" value="has" style="curved=1;startArrow=none;endArrow=block;exitX=1;exitY=0.62;entryX=0.49;entryY=0;rounded=0;fillColor=#dae8fc;strokeColor=#6c8ebf;" edge="1" parent="1" source="RF5eV9zY0-kpTHiVYETu-11" target="RF5eV9zY0-kpTHiVYETu-18">
          <mxGeometry relative="1" as="geometry">
            <Array as="points">
              <mxPoint x="3007" y="350" />
            </Array>
          </mxGeometry>
        </mxCell>
        <mxCell id="RF5eV9zY0-kpTHiVYETu-56" value="has" style="curved=1;startArrow=none;endArrow=block;exitX=1;exitY=0.67;entryX=0.5;entryY=0;rounded=0;fillColor=#dae8fc;strokeColor=#6c8ebf;" edge="1" parent="1" source="RF5eV9zY0-kpTHiVYETu-11" target="RF5eV9zY0-kpTHiVYETu-19">
          <mxGeometry relative="1" as="geometry">
            <Array as="points">
              <mxPoint x="2839" y="350" />
            </Array>
          </mxGeometry>
        </mxCell>
        <mxCell id="RF5eV9zY0-kpTHiVYETu-57" value="has" style="curved=1;startArrow=none;endArrow=block;exitX=1;exitY=0.86;entryX=0.5;entryY=0;rounded=0;fillColor=#dae8fc;strokeColor=#6c8ebf;" edge="1" parent="1" source="RF5eV9zY0-kpTHiVYETu-11" target="RF5eV9zY0-kpTHiVYETu-20">
          <mxGeometry relative="1" as="geometry">
            <Array as="points">
              <mxPoint x="2652" y="350" />
            </Array>
          </mxGeometry>
        </mxCell>
        <mxCell id="RF5eV9zY0-kpTHiVYETu-58" value="has" style="curved=1;startArrow=none;endArrow=block;exitX=0.5;exitY=1;entryX=0.5;entryY=0;rounded=0;fillColor=#dae8fc;strokeColor=#6c8ebf;" edge="1" parent="1" source="RF5eV9zY0-kpTHiVYETu-11" target="RF5eV9zY0-kpTHiVYETu-21">
          <mxGeometry relative="1" as="geometry">
            <Array as="points" />
          </mxGeometry>
        </mxCell>
        <mxCell id="RF5eV9zY0-kpTHiVYETu-59" value="has" style="curved=1;startArrow=none;endArrow=block;exitX=0;exitY=0.88;entryX=0.5;entryY=0;rounded=0;fillColor=#dae8fc;strokeColor=#6c8ebf;" edge="1" parent="1" source="RF5eV9zY0-kpTHiVYETu-11" target="RF5eV9zY0-kpTHiVYETu-22">
          <mxGeometry relative="1" as="geometry">
            <Array as="points">
              <mxPoint x="2311" y="350" />
            </Array>
          </mxGeometry>
        </mxCell>
        <mxCell id="RF5eV9zY0-kpTHiVYETu-60" value="has" style="curved=1;startArrow=none;endArrow=block;exitX=0;exitY=0.68;entryX=0.5;entryY=0;rounded=0;fillColor=#dae8fc;strokeColor=#6c8ebf;" edge="1" parent="1" source="RF5eV9zY0-kpTHiVYETu-11" target="RF5eV9zY0-kpTHiVYETu-23">
          <mxGeometry relative="1" as="geometry">
            <Array as="points">
              <mxPoint x="2127" y="350" />
            </Array>
          </mxGeometry>
        </mxCell>
        <mxCell id="RF5eV9zY0-kpTHiVYETu-61" value="has" style="curved=1;startArrow=none;endArrow=block;exitX=0;exitY=0.62;entryX=0.5;entryY=0;rounded=0;fillColor=#dae8fc;strokeColor=#6c8ebf;" edge="1" parent="1" source="RF5eV9zY0-kpTHiVYETu-11" target="RF5eV9zY0-kpTHiVYETu-24">
          <mxGeometry relative="1" as="geometry">
            <Array as="points">
              <mxPoint x="1956" y="350" />
            </Array>
          </mxGeometry>
        </mxCell>
        <mxCell id="RF5eV9zY0-kpTHiVYETu-62" value="has" style="curved=1;startArrow=none;endArrow=block;exitX=0;exitY=0.59;entryX=0.5;entryY=0;rounded=0;fillColor=#dae8fc;strokeColor=#6c8ebf;" edge="1" parent="1" source="RF5eV9zY0-kpTHiVYETu-11" target="RF5eV9zY0-kpTHiVYETu-25">
          <mxGeometry relative="1" as="geometry">
            <Array as="points">
              <mxPoint x="1775" y="350" />
            </Array>
          </mxGeometry>
        </mxCell>
        <mxCell id="RF5eV9zY0-kpTHiVYETu-63" value="1:n" style="curved=1;startArrow=none;endArrow=block;exitX=1.01;exitY=0.73;entryX=1;entryY=0.28;rounded=0;fillColor=#dae8fc;strokeColor=#6c8ebf;" edge="1" parent="1" source="RF5eV9zY0-kpTHiVYETu-26" target="RF5eV9zY0-kpTHiVYETu-2">
          <mxGeometry relative="1" as="geometry">
            <Array as="points">
              <mxPoint x="2298" y="106" />
            </Array>
          </mxGeometry>
        </mxCell>
        <mxCell id="RF5eV9zY0-kpTHiVYETu-64" value="has" style="curved=1;startArrow=none;endArrow=block;exitX=1.01;exitY=0.79;entryX=0;entryY=0.26;rounded=0;fillColor=#dae8fc;strokeColor=#6c8ebf;" edge="1" parent="1" source="RF5eV9zY0-kpTHiVYETu-26" target="RF5eV9zY0-kpTHiVYETu-27">
          <mxGeometry relative="1" as="geometry">
            <Array as="points">
              <mxPoint x="2250" y="106" />
            </Array>
          </mxGeometry>
        </mxCell>
        <mxCell id="RF5eV9zY0-kpTHiVYETu-65" value="has" style="curved=1;startArrow=none;endArrow=block;exitX=0.95;exitY=1;entryX=0;entryY=0.14;rounded=0;fillColor=#dae8fc;strokeColor=#6c8ebf;" edge="1" parent="1" source="RF5eV9zY0-kpTHiVYETu-26" target="RF5eV9zY0-kpTHiVYETu-28">
          <mxGeometry relative="1" as="geometry">
            <Array as="points">
              <mxPoint x="2147" y="106" />
            </Array>
          </mxGeometry>
        </mxCell>
        <mxCell id="RF5eV9zY0-kpTHiVYETu-66" value="has" style="curved=1;startArrow=none;endArrow=block;exitX=0.51;exitY=1;entryX=0;entryY=0.06;rounded=0;fillColor=#dae8fc;strokeColor=#6c8ebf;" edge="1" parent="1" source="RF5eV9zY0-kpTHiVYETu-26" target="RF5eV9zY0-kpTHiVYETu-29">
          <mxGeometry relative="1" as="geometry">
            <Array as="points">
              <mxPoint x="2043" y="106" />
            </Array>
          </mxGeometry>
        </mxCell>
        <mxCell id="RF5eV9zY0-kpTHiVYETu-67" value="has" style="curved=1;startArrow=none;endArrow=block;exitX=0.3;exitY=1;entryX=0.99;entryY=0.08;rounded=0;fillColor=#dae8fc;strokeColor=#6c8ebf;" edge="1" parent="1" source="RF5eV9zY0-kpTHiVYETu-26" target="RF5eV9zY0-kpTHiVYETu-30">
          <mxGeometry relative="1" as="geometry">
            <Array as="points">
              <mxPoint x="1995" y="106" />
            </Array>
          </mxGeometry>
        </mxCell>
        <mxCell id="RF5eV9zY0-kpTHiVYETu-68" value="has" style="curved=1;startArrow=none;endArrow=block;exitX=0;exitY=0.89;entryX=1;entryY=0.11;rounded=0;fillColor=#dae8fc;strokeColor=#6c8ebf;" edge="1" parent="1" source="RF5eV9zY0-kpTHiVYETu-26" target="RF5eV9zY0-kpTHiVYETu-31">
          <mxGeometry relative="1" as="geometry">
            <Array as="points">
              <mxPoint x="1889" y="106" />
            </Array>
          </mxGeometry>
        </mxCell>
        <mxCell id="RF5eV9zY0-kpTHiVYETu-69" value="has" style="curved=1;startArrow=none;endArrow=block;exitX=0;exitY=0.73;entryX=1;entryY=0.25;rounded=0;fillColor=#dae8fc;strokeColor=#6c8ebf;" edge="1" parent="1" source="RF5eV9zY0-kpTHiVYETu-26" target="RF5eV9zY0-kpTHiVYETu-32">
          <mxGeometry relative="1" as="geometry">
            <Array as="points">
              <mxPoint x="1781" y="106" />
            </Array>
          </mxGeometry>
        </mxCell>
        <mxCell id="RF5eV9zY0-kpTHiVYETu-70" value="1:n" style="curved=1;startArrow=none;endArrow=block;exitX=1;exitY=0.88;entryX=0.5;entryY=0;rounded=0;fillColor=#dae8fc;strokeColor=#6c8ebf;" edge="1" parent="1" source="RF5eV9zY0-kpTHiVYETu-33" target="RF5eV9zY0-kpTHiVYETu-34">
          <mxGeometry relative="1" as="geometry">
            <Array as="points">
              <mxPoint x="3107" y="106" />
            </Array>
          </mxGeometry>
        </mxCell>
        <mxCell id="RF5eV9zY0-kpTHiVYETu-71" value="has" style="curved=1;startArrow=none;endArrow=block;exitX=0.71;exitY=1;entryX=0.5;entryY=0;rounded=0;fillColor=#dae8fc;strokeColor=#6c8ebf;" edge="1" parent="1" source="RF5eV9zY0-kpTHiVYETu-34" target="RF5eV9zY0-kpTHiVYETu-35">
          <mxGeometry relative="1" as="geometry">
            <Array as="points">
              <mxPoint x="3196" y="228" />
            </Array>
          </mxGeometry>
        </mxCell>
        <mxCell id="RF5eV9zY0-kpTHiVYETu-72" value="has" style="curved=1;startArrow=none;endArrow=block;exitX=0;exitY=0.93;entryX=0.5;entryY=0;rounded=0;fillColor=#dae8fc;strokeColor=#6c8ebf;" edge="1" parent="1" source="RF5eV9zY0-kpTHiVYETu-34" target="RF5eV9zY0-kpTHiVYETu-36">
          <mxGeometry relative="1" as="geometry">
            <Array as="points">
              <mxPoint x="2852" y="228" />
            </Array>
          </mxGeometry>
        </mxCell>
        <mxCell id="RF5eV9zY0-kpTHiVYETu-73" value="has" style="curved=1;startArrow=none;endArrow=block;exitX=0.5;exitY=1;entryX=0.5;entryY=0;rounded=0;fillColor=#dae8fc;strokeColor=#6c8ebf;" edge="1" parent="1" source="RF5eV9zY0-kpTHiVYETu-33" target="RF5eV9zY0-kpTHiVYETu-37">
          <mxGeometry relative="1" as="geometry">
            <Array as="points" />
          </mxGeometry>
        </mxCell>
        <mxCell id="RF5eV9zY0-kpTHiVYETu-74" value="has" style="curved=1;startArrow=none;endArrow=block;exitX=0;exitY=0.91;entryX=0.5;entryY=0;rounded=0;fillColor=#dae8fc;strokeColor=#6c8ebf;" edge="1" parent="1" source="RF5eV9zY0-kpTHiVYETu-33" target="RF5eV9zY0-kpTHiVYETu-38">
          <mxGeometry relative="1" as="geometry">
            <Array as="points">
              <mxPoint x="2679" y="106" />
            </Array>
          </mxGeometry>
        </mxCell>
      </root>
    </mxGraphModel>
  </diagram>
</mxfile>
